<svg width="15" height="13" viewBox="0 0 15 13" fill="none" xmlns="http://www.w3.org/2000/svg">
    <path d="M7.50002 0.0078125C6.95705 0.0078125 6.41408 0.265625 6.10549 0.78125L0.226584 10.6055C-0.398417 11.6445 0.402365 13 1.61721 13H13.3789C14.5977 13 15.3985 11.6445 14.7774 10.6055L8.89455 0.78125C8.58596 0.265625 8.04299 0.0078125 7.50002 0.0078125ZM7.50002 0.992188C7.70705 0.992188 7.91408 1.09375 8.03908 1.29687L13.918 11.1172C14.1641 11.5273 13.8906 12 13.3789 12H1.61721C1.1094 12 0.835959 11.5273 1.08205 11.1172L6.96096 1.29687C7.08596 1.09375 7.29299 0.992188 7.50002 0.992188ZM6.99221 4V9H7.99221V4H6.99221ZM6.99221 10V11H7.99221V10H6.99221Z" fill="#E6961D"/>
</svg>
